<?xml version="1.0" encoding="UTF-8" standalone="no"?>
<!DOCTYPE svg PUBLIC "-//W3C//DTD SVG 1.1//EN"
 "http://www.w3.org/Graphics/SVG/1.1/DTD/svg11.dtd">
<!-- Generated by graphviz version 2.38.0 (20140413.2041)
 -->
<!-- Title: G Pages: 1 -->
<svg width="304pt" height="332pt"
 viewBox="0.00 0.00 304.00 332.00" xmlns="http://www.w3.org/2000/svg" xmlns:xlink="http://www.w3.org/1999/xlink">
<g id="graph0" class="graph" transform="scale(1 1) rotate(0) translate(4 328)">
<title>G</title>
<polygon fill="white" stroke="none" points="-4,4 -4,-328 300,-328 300,4 -4,4"/>
<!-- 0 -->
<g id="node1" class="node"><title>0</title>
<path fill="#f3c5d7" stroke="black" d="M202,-108C202,-108 109,-108 109,-108 103,-108 97,-102 97,-96 97,-96 97,-84 97,-84 97,-78 103,-72 109,-72 109,-72 202,-72 202,-72 208,-72 214,-78 214,-84 214,-84 214,-96 214,-96 214,-102 208,-108 202,-108"/>
<text text-anchor="middle" x="155.5" y="-86.9" font-family="Helvetica,sans-Serif" font-size="12.00">20160824T122839</text>
</g>
<!-- 5 -->
<g id="node6" class="node"><title>5</title>
<path fill="#b6bdeb" stroke="black" d="M171,-36C171,-36 140,-36 140,-36 134,-36 128,-30 128,-24 128,-24 128,-12 128,-12 128,-6 134,-0 140,-0 140,-0 171,-0 171,-0 177,-0 183,-6 183,-12 183,-12 183,-24 183,-24 183,-30 177,-36 171,-36"/>
<text text-anchor="middle" x="155.5" y="-14.9" font-family="Helvetica,sans-Serif" font-size="12.00">fNL.pdf</text>
</g>
<!-- 0&#45;&gt;5 -->
<g id="edge1" class="edge"><title>0&#45;&gt;5</title>
<path fill="none" stroke="black" d="M155.5,-71.6966C155.5,-63.9827 155.5,-54.7125 155.5,-46.1124"/>
<polygon fill="black" stroke="black" points="159,-46.1043 155.5,-36.1043 152,-46.1044 159,-46.1043"/>
</g>
<!-- 1 -->
<g id="node2" class="node"><title>1</title>
<path fill="#f3c5d7" stroke="black" d="M143,-180C143,-180 12,-180 12,-180 6,-180 0,-174 0,-168 0,-168 0,-156 0,-156 0,-150 6,-144 12,-144 12,-144 143,-144 143,-144 149,-144 155,-150 155,-156 155,-156 155,-168 155,-168 155,-174 149,-180 143,-180"/>
<text text-anchor="middle" x="77.5" y="-158.9" font-family="Helvetica,sans-Serif" font-size="12.00">20160824T122839&#45;paired</text>
</g>
<!-- 1&#45;&gt;0 -->
<g id="edge2" class="edge"><title>1&#45;&gt;0</title>
<path fill="none" stroke="black" d="M96.7809,-143.697C106.415,-135.05 118.229,-124.449 128.727,-115.027"/>
<polygon fill="black" stroke="black" points="131.336,-117.388 136.441,-108.104 126.661,-112.179 131.336,-117.388"/>
</g>
<!-- 2 -->
<g id="node3" class="node"><title>2</title>
<path fill="#ebe8d3" stroke="black" d="M192,-252C192,-252 119,-252 119,-252 113,-252 107,-246 107,-240 107,-240 107,-228 107,-228 107,-222 113,-216 119,-216 119,-216 192,-216 192,-216 198,-216 204,-222 204,-228 204,-228 204,-240 204,-240 204,-246 198,-252 192,-252"/>
<text text-anchor="middle" x="155.5" y="-230.9" font-family="Helvetica,sans-Serif" font-size="12.00">gelaton.threepf</text>
</g>
<!-- 2&#45;&gt;1 -->
<g id="edge3" class="edge"><title>2&#45;&gt;1</title>
<path fill="none" stroke="black" d="M136.219,-215.697C126.585,-207.05 114.771,-196.449 104.273,-187.027"/>
<polygon fill="black" stroke="black" points="106.339,-184.179 96.5591,-180.104 101.664,-189.388 106.339,-184.179"/>
</g>
<!-- 4 -->
<g id="node5" class="node"><title>4</title>
<path fill="#ebe8d3" stroke="black" d="M284,-180C284,-180 185,-180 185,-180 179,-180 173,-174 173,-168 173,-168 173,-156 173,-156 173,-150 179,-144 185,-144 185,-144 284,-144 284,-144 290,-144 296,-150 296,-156 296,-156 296,-168 296,-168 296,-174 290,-180 284,-180"/>
<text text-anchor="middle" x="234.5" y="-158.9" font-family="Helvetica,sans-Serif" font-size="12.00">gelaton.threepf&#45;zeta</text>
</g>
<!-- 2&#45;&gt;4 -->
<g id="edge4" class="edge"><title>2&#45;&gt;4</title>
<path fill="none" stroke="black" d="M175.028,-215.697C184.882,-206.965 196.986,-196.24 207.696,-186.75"/>
<polygon fill="black" stroke="black" points="210.033,-189.356 215.197,-180.104 205.391,-184.117 210.033,-189.356"/>
</g>
<!-- 3 -->
<g id="node4" class="node"><title>3</title>
<path fill="#bfebc6" stroke="black" d="M171.5,-324C171.5,-324 139.5,-324 139.5,-324 133.5,-324 127.5,-318 127.5,-312 127.5,-312 127.5,-300 127.5,-300 127.5,-294 133.5,-288 139.5,-288 139.5,-288 171.5,-288 171.5,-288 177.5,-288 183.5,-294 183.5,-300 183.5,-300 183.5,-312 183.5,-312 183.5,-318 177.5,-324 171.5,-324"/>
<text text-anchor="middle" x="155.5" y="-302.9" font-family="Helvetica,sans-Serif" font-size="12.00">gelaton</text>
</g>
<!-- 3&#45;&gt;2 -->
<g id="edge5" class="edge"><title>3&#45;&gt;2</title>
<path fill="none" stroke="black" d="M155.5,-287.697C155.5,-279.983 155.5,-270.712 155.5,-262.112"/>
<polygon fill="black" stroke="black" points="159,-262.104 155.5,-252.104 152,-262.104 159,-262.104"/>
</g>
<!-- 4&#45;&gt;0 -->
<g id="edge6" class="edge"><title>4&#45;&gt;0</title>
<path fill="none" stroke="black" d="M214.972,-143.697C205.118,-134.965 193.014,-124.24 182.304,-114.75"/>
<polygon fill="black" stroke="black" points="184.609,-112.117 174.803,-108.104 179.967,-117.356 184.609,-112.117"/>
</g>
</g>
</svg>
