<?xml version="1.0" encoding="UTF-8" standalone="no"?>
<!DOCTYPE svg PUBLIC "-//W3C//DTD SVG 1.1//EN"
 "http://www.w3.org/Graphics/SVG/1.1/DTD/svg11.dtd">
<!-- Generated by graphviz version 2.38.0 (20140413.2041)
 -->
<!-- Title: G Pages: 1 -->
<svg width="163pt" height="260pt"
 viewBox="0.00 0.00 163.00 260.00" xmlns="http://www.w3.org/2000/svg" xmlns:xlink="http://www.w3.org/1999/xlink">
<g id="graph0" class="graph" transform="scale(1 1) rotate(0) translate(4 256)">
<title>G</title>
<polygon fill="white" stroke="none" points="-4,4 -4,-256 159,-256 159,4 -4,4"/>
<!-- 0 -->
<g id="node1" class="node"><title>0</title>
<path fill="#f3c5d7" stroke="black" d="M143,-108C143,-108 12,-108 12,-108 6,-108 0,-102 0,-96 0,-96 0,-84 0,-84 0,-78 6,-72 12,-72 12,-72 143,-72 143,-72 149,-72 155,-78 155,-84 155,-84 155,-96 155,-96 155,-102 149,-108 143,-108"/>
<text text-anchor="middle" x="77.5" y="-86.9" font-family="Helvetica,sans-Serif" font-size="12.00">20160824T122839&#45;paired</text>
</g>
<!-- 3 -->
<g id="node4" class="node"><title>3</title>
<path fill="#b6bdeb" stroke="black" d="M118.5,-36C118.5,-36 36.5,-36 36.5,-36 30.5,-36 24.5,-30 24.5,-24 24.5,-24 24.5,-12 24.5,-12 24.5,-6 30.5,-0 36.5,-0 36.5,-0 118.5,-0 118.5,-0 124.5,-0 130.5,-6 130.5,-12 130.5,-12 130.5,-24 130.5,-24 130.5,-30 124.5,-36 118.5,-36"/>
<text text-anchor="middle" x="77.5" y="-14.9" font-family="Helvetica,sans-Serif" font-size="12.00">threepf&#45;fields.pdf</text>
</g>
<!-- 0&#45;&gt;3 -->
<g id="edge1" class="edge"><title>0&#45;&gt;3</title>
<path fill="none" stroke="black" d="M77.5,-71.6966C77.5,-63.9827 77.5,-54.7125 77.5,-46.1124"/>
<polygon fill="black" stroke="black" points="81.0001,-46.1043 77.5,-36.1043 74.0001,-46.1044 81.0001,-46.1043"/>
</g>
<!-- 1 -->
<g id="node2" class="node"><title>1</title>
<path fill="#ebe8d3" stroke="black" d="M114,-180C114,-180 41,-180 41,-180 35,-180 29,-174 29,-168 29,-168 29,-156 29,-156 29,-150 35,-144 41,-144 41,-144 114,-144 114,-144 120,-144 126,-150 126,-156 126,-156 126,-168 126,-168 126,-174 120,-180 114,-180"/>
<text text-anchor="middle" x="77.5" y="-158.9" font-family="Helvetica,sans-Serif" font-size="12.00">gelaton.threepf</text>
</g>
<!-- 1&#45;&gt;0 -->
<g id="edge2" class="edge"><title>1&#45;&gt;0</title>
<path fill="none" stroke="black" d="M77.5,-143.697C77.5,-135.983 77.5,-126.712 77.5,-118.112"/>
<polygon fill="black" stroke="black" points="81.0001,-118.104 77.5,-108.104 74.0001,-118.104 81.0001,-118.104"/>
</g>
<!-- 2 -->
<g id="node3" class="node"><title>2</title>
<path fill="#bfebc6" stroke="black" d="M93.5,-252C93.5,-252 61.5,-252 61.5,-252 55.5,-252 49.5,-246 49.5,-240 49.5,-240 49.5,-228 49.5,-228 49.5,-222 55.5,-216 61.5,-216 61.5,-216 93.5,-216 93.5,-216 99.5,-216 105.5,-222 105.5,-228 105.5,-228 105.5,-240 105.5,-240 105.5,-246 99.5,-252 93.5,-252"/>
<text text-anchor="middle" x="77.5" y="-230.9" font-family="Helvetica,sans-Serif" font-size="12.00">gelaton</text>
</g>
<!-- 2&#45;&gt;1 -->
<g id="edge3" class="edge"><title>2&#45;&gt;1</title>
<path fill="none" stroke="black" d="M77.5,-215.697C77.5,-207.983 77.5,-198.712 77.5,-190.112"/>
<polygon fill="black" stroke="black" points="81.0001,-190.104 77.5,-180.104 74.0001,-190.104 81.0001,-190.104"/>
</g>
</g>
</svg>
