<?xml version="1.0" encoding="UTF-8" standalone="no"?>
<!DOCTYPE svg PUBLIC "-//W3C//DTD SVG 1.1//EN"
 "http://www.w3.org/Graphics/SVG/1.1/DTD/svg11.dtd">
<!-- Generated by graphviz version 2.38.0 (20140413.2041)
 -->
<!-- Title: G Pages: 1 -->
<svg width="304pt" height="332pt"
 viewBox="0.00 0.00 304.00 332.00" xmlns="http://www.w3.org/2000/svg" xmlns:xlink="http://www.w3.org/1999/xlink">
<g id="graph0" class="graph" transform="scale(1 1) rotate(0) translate(4 328)">
<title>G</title>
<polygon fill="white" stroke="none" points="-4,4 -4,-328 300,-328 300,4 -4,4"/>
<!-- 0 -->
<g id="node1" class="node"><title>0</title>
<path fill="#f3c5d7" stroke="black" d="M178,-108C178,-108 85,-108 85,-108 79,-108 73,-102 73,-96 73,-96 73,-84 73,-84 73,-78 79,-72 85,-72 85,-72 178,-72 178,-72 184,-72 190,-78 190,-84 190,-84 190,-96 190,-96 190,-102 184,-108 178,-108"/>
<text text-anchor="middle" x="131.5" y="-86.9" font-family="Helvetica,sans-Serif" font-size="12.00">20160824T122839</text>
</g>
<!-- 5 -->
<g id="node6" class="node"><title>5</title>
<path fill="#b6bdeb" stroke="black" d="M198,-36C198,-36 151,-36 151,-36 145,-36 139,-30 139,-24 139,-24 139,-12 139,-12 139,-6 145,-0 151,-0 151,-0 198,-0 198,-0 204,-0 210,-6 210,-12 210,-12 210,-24 210,-24 210,-30 204,-36 198,-36"/>
<text text-anchor="middle" x="174.5" y="-14.9" font-family="Helvetica,sans-Serif" font-size="12.00">utable.csv</text>
</g>
<!-- 0&#45;&gt;5 -->
<g id="edge1" class="edge"><title>0&#45;&gt;5</title>
<path fill="none" stroke="black" d="M142.129,-71.6966C147.128,-63.5589 153.191,-53.689 158.712,-44.7013"/>
<polygon fill="black" stroke="black" points="161.741,-46.4571 163.993,-36.1043 155.777,-42.7931 161.741,-46.4571"/>
</g>
<!-- 1 -->
<g id="node2" class="node"><title>1</title>
<path fill="#f3c5d7" stroke="black" d="M284,-180C284,-180 153,-180 153,-180 147,-180 141,-174 141,-168 141,-168 141,-156 141,-156 141,-150 147,-144 153,-144 153,-144 284,-144 284,-144 290,-144 296,-150 296,-156 296,-156 296,-168 296,-168 296,-174 290,-180 284,-180"/>
<text text-anchor="middle" x="218.5" y="-158.9" font-family="Helvetica,sans-Serif" font-size="12.00">20160824T122839&#45;paired</text>
</g>
<!-- 1&#45;&gt;0 -->
<g id="edge2" class="edge"><title>1&#45;&gt;0</title>
<path fill="none" stroke="black" d="M196.994,-143.697C186.037,-134.881 172.554,-124.032 160.675,-114.474"/>
<polygon fill="black" stroke="black" points="162.744,-111.646 152.758,-108.104 158.355,-117.1 162.744,-111.646"/>
</g>
<!-- 1&#45;&gt;5 -->
<g id="edge3" class="edge"><title>1&#45;&gt;5</title>
<path fill="none" stroke="black" d="M215.745,-143.988C212.564,-125.866 206.697,-96.4779 198.5,-72 195.549,-63.1882 191.62,-53.8649 187.796,-45.5358"/>
<polygon fill="black" stroke="black" points="190.867,-43.8424 183.421,-36.305 184.541,-46.8405 190.867,-43.8424"/>
</g>
<!-- 2 -->
<g id="node3" class="node"><title>2</title>
<path fill="#ebe8d3" stroke="black" d="M176,-252C176,-252 103,-252 103,-252 97,-252 91,-246 91,-240 91,-240 91,-228 91,-228 91,-222 97,-216 103,-216 103,-216 176,-216 176,-216 182,-216 188,-222 188,-228 188,-228 188,-240 188,-240 188,-246 182,-252 176,-252"/>
<text text-anchor="middle" x="139.5" y="-230.9" font-family="Helvetica,sans-Serif" font-size="12.00">gelaton.threepf</text>
</g>
<!-- 2&#45;&gt;1 -->
<g id="edge4" class="edge"><title>2&#45;&gt;1</title>
<path fill="none" stroke="black" d="M159.028,-215.697C168.882,-206.965 180.986,-196.24 191.696,-186.75"/>
<polygon fill="black" stroke="black" points="194.033,-189.356 199.197,-180.104 189.391,-184.117 194.033,-189.356"/>
</g>
<!-- 4 -->
<g id="node5" class="node"><title>4</title>
<path fill="#ebe8d3" stroke="black" d="M111,-180C111,-180 12,-180 12,-180 6,-180 0,-174 0,-168 0,-168 0,-156 0,-156 0,-150 6,-144 12,-144 12,-144 111,-144 111,-144 117,-144 123,-150 123,-156 123,-156 123,-168 123,-168 123,-174 117,-180 111,-180"/>
<text text-anchor="middle" x="61.5" y="-158.9" font-family="Helvetica,sans-Serif" font-size="12.00">gelaton.threepf&#45;zeta</text>
</g>
<!-- 2&#45;&gt;4 -->
<g id="edge5" class="edge"><title>2&#45;&gt;4</title>
<path fill="none" stroke="black" d="M120.219,-215.697C110.585,-207.05 98.7712,-196.449 88.273,-187.027"/>
<polygon fill="black" stroke="black" points="90.3393,-184.179 80.5591,-180.104 85.6639,-189.388 90.3393,-184.179"/>
</g>
<!-- 3 -->
<g id="node4" class="node"><title>3</title>
<path fill="#bfebc6" stroke="black" d="M155.5,-324C155.5,-324 123.5,-324 123.5,-324 117.5,-324 111.5,-318 111.5,-312 111.5,-312 111.5,-300 111.5,-300 111.5,-294 117.5,-288 123.5,-288 123.5,-288 155.5,-288 155.5,-288 161.5,-288 167.5,-294 167.5,-300 167.5,-300 167.5,-312 167.5,-312 167.5,-318 161.5,-324 155.5,-324"/>
<text text-anchor="middle" x="139.5" y="-302.9" font-family="Helvetica,sans-Serif" font-size="12.00">gelaton</text>
</g>
<!-- 3&#45;&gt;2 -->
<g id="edge6" class="edge"><title>3&#45;&gt;2</title>
<path fill="none" stroke="black" d="M139.5,-287.697C139.5,-279.983 139.5,-270.712 139.5,-262.112"/>
<polygon fill="black" stroke="black" points="143,-262.104 139.5,-252.104 136,-262.104 143,-262.104"/>
</g>
<!-- 4&#45;&gt;0 -->
<g id="edge7" class="edge"><title>4&#45;&gt;0</title>
<path fill="none" stroke="black" d="M78.8034,-143.697C87.365,-135.135 97.8438,-124.656 107.196,-115.304"/>
<polygon fill="black" stroke="black" points="109.799,-117.65 114.396,-108.104 104.85,-112.701 109.799,-117.65"/>
</g>
</g>
</svg>
